<svg version="1.1" id="Layer_1" xmlns="http://www.w3.org/2000/svg" xmlns:xlink="http://www.w3.org/1999/xlink" x="0px" y="0px"
	 width="100%" viewBox="0 0 512 512" enable-background="new 0 0 512 512" xml:space="preserve">
<path fill="#000000" opacity="1.000000" stroke="none" 
	d="
M278.000000,513.000000 
	C185.355820,513.000000 93.211639,513.000000 1.033728,513.000000 
	C1.033728,342.397461 1.033728,171.794907 1.033728,1.096182 
	C171.560867,1.096182 342.121796,1.096182 512.841370,1.096182 
	C512.841370,171.666550 512.841370,342.333252 512.841370,513.000000 
	C434.794891,513.000000 356.647430,513.000000 278.000000,513.000000 
M465.017578,262.030701 
	C464.905914,259.207458 465.176880,256.306427 464.621368,253.573395 
	C460.599640,233.787888 450.037506,218.850769 431.450470,210.258072 
	C422.114441,205.942062 412.565857,202.084946 403.106415,198.036728 
	C375.643768,186.283890 348.192993,174.502899 320.692444,162.839386 
	C317.389496,161.438568 315.873840,159.676315 315.909363,155.824844 
	C316.102997,134.829849 316.045349,113.831924 315.952301,92.835548 
	C315.938477,89.713127 315.607391,86.513008 314.864807,83.485779 
	C310.148956,64.260918 290.980164,51.818844 271.681763,55.979420 
	C259.207947,58.668682 246.936401,62.315582 234.609039,65.661598 
	C187.210800,78.526863 139.867477,91.596779 92.421432,104.282761 
	C65.057404,111.599258 48.590244,138.102646 48.766689,161.740372 
	C49.373665,243.056732 49.076569,324.380554 48.906757,405.701111 
	C48.884594,416.317200 50.870228,426.201355 56.169567,435.299133 
	C67.016846,453.921448 83.166656,464.808777 104.860397,464.870911 
	C206.344040,465.161652 307.828979,465.001038 409.313446,464.993378 
	C411.477417,464.993225 413.689056,465.167023 415.798157,464.799225 
	C445.222473,459.667664 465.950989,434.454498 465.611145,406.441406 
	C465.738678,405.457550 465.977325,404.473785 465.977753,403.489868 
	C465.997620,358.046814 466.005432,312.603760 465.958099,267.160736 
	C465.956635,265.751068 465.360291,264.341949 465.017578,262.030701 
z"/>
<path fill="#ffffff" opacity="1.000000" stroke="none" 
	d="
M465.040405,407.066772 
	C465.950989,434.454498 445.222473,459.667664 415.798157,464.799225 
	C413.689056,465.167023 411.477417,464.993225 409.313446,464.993378 
	C307.828979,465.001038 206.344040,465.161652 104.860397,464.870911 
	C83.166656,464.808777 67.016846,453.921448 56.169567,435.299133 
	C50.870228,426.201355 48.884594,416.317200 48.906757,405.701111 
	C49.076569,324.380554 49.373665,243.056732 48.766689,161.740372 
	C48.590244,138.102646 65.057404,111.599258 92.421432,104.282761 
	C139.867477,91.596779 187.210800,78.526863 234.609039,65.661598 
	C246.936401,62.315582 259.207947,58.668682 271.681763,55.979420 
	C290.980164,51.818844 310.148956,64.260918 314.864807,83.485779 
	C315.607391,86.513008 315.938477,89.713127 315.952301,92.835548 
	C316.045349,113.831924 316.102997,134.829849 315.909363,155.824844 
	C315.873840,159.676315 317.389496,161.438568 320.692444,162.839386 
	C348.192993,174.502899 375.643768,186.283890 403.106415,198.036728 
	C412.565857,202.084946 422.114441,205.942062 431.450470,210.258072 
	C450.037506,218.850769 460.599640,233.787888 464.621368,253.573395 
	C465.176880,256.306427 464.905914,259.207458 465.017151,262.955444 
	C465.024658,311.609039 465.032532,359.337891 465.040405,407.066772 
M145.887924,432.995117 
	C170.277359,432.992645 194.666779,432.990173 219.986420,432.997620 
	C230.638840,432.994202 241.291260,432.990784 252.888031,432.994690 
	C260.384308,432.996460 267.880554,433.000519 275.376831,432.999329 
	C282.995819,432.998138 282.999847,432.995880 282.999908,425.502869 
	C283.000763,316.389801 283.000549,207.276733 283.000000,98.163658 
	C283.000000,96.831001 283.049774,95.495193 282.977478,94.166237 
	C282.709656,89.244087 280.750610,87.677383 275.961731,88.899284 
	C267.448944,91.071335 258.975220,93.397858 250.494400,95.693832 
	C204.089096,108.256905 157.659241,120.731133 111.312607,133.507187 
	C104.360001,135.423782 97.134758,137.765137 91.217155,141.690964 
	C82.354065,147.570862 81.077240,157.706436 81.063049,167.502411 
	C80.950562,245.130783 80.974869,322.759430 81.069237,400.387848 
	C81.074417,404.649994 81.597115,409.040497 82.705040,413.148407 
	C86.207260,426.134003 96.837975,432.914124 113.986610,432.997375 
	C124.305626,432.994049 134.624634,432.990723 145.887924,432.995117 
M432.925659,404.099304 
	C432.950439,362.131897 433.010101,320.164429 432.957306,278.197113 
	C432.950470,272.740601 432.379272,267.283844 432.042908,261.828857 
	C431.353058,250.641754 425.187439,243.483643 415.233154,239.198669 
	C392.069977,229.227737 368.894958,219.284378 345.714752,209.353027 
	C336.156464,205.257843 326.572662,201.222122 316.428009,196.916397 
	C316.244537,199.071381 316.017120,200.498001 316.016815,201.924698 
	C315.999786,277.200684 316.032013,352.476715 315.922607,427.752563 
	C315.916473,431.971558 317.313385,433.102081 321.373932,433.075928 
	C345.521179,432.920471 369.670258,433.059692 393.818024,432.954224 
	C399.275940,432.930389 404.754211,432.539948 410.182922,431.949005 
	C420.345886,430.842682 429.896912,421.875000 431.823212,411.882690 
	C432.260803,409.612885 432.478271,407.300690 432.925659,404.099304 
z"/>
<path fill="#003366" opacity="1.000000" stroke="none" 
	d="
M465.325775,406.754089 
	C465.032532,359.337891 465.024658,311.609039 465.029053,263.406372 
	C465.360291,264.341949 465.956635,265.751068 465.958099,267.160736 
	C466.005432,312.603760 465.997620,358.046814 465.977753,403.489868 
	C465.977325,404.473785 465.738678,405.457550 465.325775,406.754089 
z"/>
<path fill="#000000" opacity="1.000000" stroke="none" 
	d="
M113.056328,432.987366 
	C96.837975,432.914124 86.207260,426.134003 82.705040,413.148407 
	C81.597115,409.040497 81.074417,404.649994 81.069237,400.387848 
	C80.974869,322.759430 80.950562,245.130783 81.063049,167.502411 
	C81.077240,157.706436 82.354065,147.570862 91.217155,141.690964 
	C97.134758,137.765137 104.360001,135.423782 111.312607,133.507187 
	C157.659241,120.731133 204.089096,108.256905 250.494400,95.693832 
	C258.975220,93.397858 267.448944,91.071335 275.961731,88.899284 
	C280.750610,87.677383 282.709656,89.244087 282.977478,94.166237 
	C283.049774,95.495193 283.000000,96.831001 283.000000,98.163658 
	C283.000549,207.276733 283.000763,316.389801 282.999908,425.502869 
	C282.999847,432.995880 282.995819,432.998138 275.376831,432.999329 
	C267.880554,433.000519 260.384308,432.996460 252.440430,432.523987 
	C251.995209,409.232269 251.847824,386.410034 252.044128,363.590698 
	C252.223282,342.767609 235.325256,325.710449 214.218536,325.947266 
	C192.899429,326.186493 171.575363,325.957367 150.253937,326.045410 
	C147.006393,326.058807 143.661057,326.284180 140.531967,327.082123 
	C124.471909,331.177612 113.509727,345.279938 113.181999,358.533478 
	C112.568649,383.337311 113.037621,408.167908 113.056328,432.987366 
M203.496902,209.000000 
	C207.329987,208.999786 211.163239,209.021332 214.996140,208.995026 
	C224.108704,208.932480 231.139984,201.793243 230.968414,192.802826 
	C230.797119,183.826340 224.030121,177.027344 215.101471,177.012680 
	C193.102875,176.976532 171.096283,177.337173 149.109741,176.820892 
	C141.240417,176.636124 133.488464,185.169205 133.904541,193.157059 
	C134.360031,201.901154 140.677551,208.978760 149.001328,208.991287 
	C166.833527,209.018127 184.665787,208.999817 203.496902,209.000000 
M183.500000,241.000000 
	C171.667435,241.000916 159.834351,240.934006 148.002502,241.026367 
	C139.984680,241.088943 133.950073,248.194901 134.001175,257.255188 
	C134.048050,265.565308 140.567154,272.956238 148.104477,272.976196 
	C170.602814,273.035828 193.101501,273.035614 215.599869,272.978485 
	C224.030273,272.957062 230.804443,265.892151 230.968521,257.199158 
	C231.134735,248.392288 224.202560,241.073914 215.497833,241.017487 
	C205.165634,240.950546 194.832642,241.000641 183.500000,241.000000 
z"/>
<path fill="#000000" opacity="1.000000" stroke="none" 
	d="
M432.861359,404.553650 
	C432.478271,407.300690 432.260803,409.612885 431.823212,411.882690 
	C429.896912,421.875000 420.345886,430.842682 410.182922,431.949005 
	C404.754211,432.539948 399.275940,432.930389 393.818024,432.954224 
	C369.670258,433.059692 345.521179,432.920471 321.373932,433.075928 
	C317.313385,433.102081 315.916473,431.971558 315.922607,427.752563 
	C316.032013,352.476715 315.999786,277.200684 316.016815,201.924698 
	C316.017120,200.498001 316.244537,199.071381 316.428009,196.916397 
	C326.572662,201.222122 336.156464,205.257843 345.714752,209.353027 
	C368.894958,219.284378 392.069977,229.227737 415.233154,239.198669 
	C425.187439,243.483643 431.353058,250.641754 432.042908,261.828857 
	C432.379272,267.283844 432.950470,272.740601 432.957306,278.197113 
	C433.010101,320.164429 432.950439,362.131897 432.861359,404.553650 
M347.736023,295.515717 
	C345.182526,306.332184 352.316620,315.834045 363.214630,315.977173 
	C371.020355,316.079712 378.831299,316.119965 386.634888,315.953186 
	C393.819397,315.799622 400.292023,309.596802 400.963135,302.572083 
	C401.872131,293.056915 397.685364,285.260040 389.782349,284.149963 
	C381.635101,283.005615 373.284698,283.163177 365.019012,283.046021 
	C356.549408,282.926025 351.234711,286.735840 347.736023,295.515717 
M391.772339,378.627197 
	C392.357635,378.315063 392.944366,378.005585 393.528015,377.690430 
	C400.910370,373.703827 402.058777,366.815125 400.733521,359.711884 
	C399.542084,353.325958 395.398376,348.312775 388.415375,347.808746 
	C379.351013,347.154480 370.165253,346.648651 361.142151,347.401703 
	C352.679504,348.107941 346.432709,356.611938 347.030914,364.495728 
	C347.728516,373.689209 354.457794,379.917206 363.827515,379.992920 
	C368.644348,380.031860 373.466492,380.133606 378.277405,379.960815 
	C382.540436,379.807648 386.791260,379.313965 391.772339,378.627197 
z"/>
<path fill="#549BFF" opacity="1.000000" stroke="none" 
	d="
M113.521469,432.992371 
	C113.037621,408.167908 112.568649,383.337311 113.181999,358.533478 
	C113.509727,345.279938 124.471909,331.177612 140.531967,327.082123 
	C143.661057,326.284180 147.006393,326.058807 150.253937,326.045410 
	C171.575363,325.957367 192.899429,326.186493 214.218536,325.947266 
	C235.325256,325.710449 252.223282,342.767609 252.044128,363.590698 
	C251.847824,386.410034 251.995209,409.232269 251.968246,432.520325 
	C241.291260,432.990784 230.638840,432.994202 219.496689,432.525574 
	C219.004578,410.248077 219.007111,388.442627 218.996796,366.637146 
	C218.993713,360.121063 217.851242,359.005096 211.204498,359.002625 
	C192.395203,358.995667 173.585892,359.000153 154.776596,359.000244 
	C146.294418,359.000275 145.009079,360.321289 145.000610,369.070374 
	C144.979996,390.376038 144.962433,411.681732 144.943649,432.987396 
	C134.624634,432.990723 124.305626,432.994049 113.521469,432.992371 
z"/>
<path fill="#000000" opacity="1.000000" stroke="none" 
	d="
M145.415787,432.991272 
	C144.962433,411.681732 144.979996,390.376038 145.000610,369.070374 
	C145.009079,360.321289 146.294418,359.000275 154.776596,359.000244 
	C173.585892,359.000153 192.395203,358.995667 211.204498,359.002625 
	C217.851242,359.005096 218.993713,360.121063 218.996796,366.637146 
	C219.007111,388.442627 219.004578,410.248077 219.031586,432.520630 
	C194.666779,432.990173 170.277359,432.992645 145.415787,432.991272 
z"/>
<path fill="#ffffff" opacity="1.000000" stroke="none" 
	d="
M202.997467,209.000000 
	C184.665787,208.999817 166.833527,209.018127 149.001328,208.991287 
	C140.677551,208.978760 134.360031,201.901154 133.904541,193.157059 
	C133.488464,185.169205 141.240417,176.636124 149.109741,176.820892 
	C171.096283,177.337173 193.102875,176.976532 215.101471,177.012680 
	C224.030121,177.027344 230.797119,183.826340 230.968414,192.802826 
	C231.139984,201.793243 224.108704,208.932480 214.996140,208.995026 
	C211.163239,209.021332 207.329987,208.999786 202.997467,209.000000 
z"/>
<path fill="#ffffff" opacity="1.000000" stroke="none" 
	d="
M184.000000,241.000000 
	C194.832642,241.000641 205.165634,240.950546 215.497833,241.017487 
	C224.202560,241.073914 231.134735,248.392288 230.968521,257.199158 
	C230.804443,265.892151 224.030273,272.957062 215.599869,272.978485 
	C193.101501,273.035614 170.602814,273.035828 148.104477,272.976196 
	C140.567154,272.956238 134.048050,265.565308 134.001175,257.255188 
	C133.950073,248.194901 139.984680,241.088943 148.002502,241.026367 
	C159.834351,240.934006 171.667435,241.000916 184.000000,241.000000 
z"/>
<path fill="#ffffff" opacity="1.000000" stroke="none" 
	d="
M347.841217,295.129333 
	C351.234711,286.735840 356.549408,282.926025 365.019012,283.046021 
	C373.284698,283.163177 381.635101,283.005615 389.782349,284.149963 
	C397.685364,285.260040 401.872131,293.056915 400.963135,302.572083 
	C400.292023,309.596802 393.819397,315.799622 386.634888,315.953186 
	C378.831299,316.119965 371.020355,316.079712 363.214630,315.977173 
	C352.316620,315.834045 345.182526,306.332184 347.841217,295.129333 
z"/>
<path fill="#ffffff" opacity="1.000000" stroke="none" 
	d="
M391.409912,378.798889 
	C386.791260,379.313965 382.540436,379.807648 378.277405,379.960815 
	C373.466492,380.133606 368.644348,380.031860 363.827515,379.992920 
	C354.457794,379.917206 347.728516,373.689209 347.030914,364.495728 
	C346.432709,356.611938 352.679504,348.107941 361.142151,347.401703 
	C370.165253,346.648651 379.351013,347.154480 388.415375,347.808746 
	C395.398376,348.312775 399.542084,353.325958 400.733521,359.711884 
	C402.058777,366.815125 400.910370,373.703827 393.528015,377.690430 
	C392.944366,378.005585 392.357635,378.315063 391.409912,378.798889 
z"/>
</svg>