<?xml version="1.0" encoding="UTF-8"?>
<!DOCTYPE svg PUBLIC "-//W3C//DTD SVG 1.1//EN" "http://www.w3.org/Graphics/SVG/1.1/DTD/svg11.dtd">
<svg xmlns="http://www.w3.org/2000/svg" version="1.1" width="512px" height="512px" style="shape-rendering:geometricPrecision; text-rendering:geometricPrecision; image-rendering:optimizeQuality; fill-rule:evenodd; clip-rule:evenodd" xmlns:xlink="http://www.w3.org/1999/xlink">
<g><path style="opacity:0.969" fill="#ed693c" d="M 305.5,79.5 C 305.565,79.9382 305.399,80.2716 305,80.5C 282.987,65.3036 261.154,49.9703 239.5,34.5C 261.038,27.8462 278.538,33.5129 292,51.5C 296.784,60.7332 301.284,70.0665 305.5,79.5 Z"/></g>
<g><path style="opacity:0.99" fill="#ee6d3c" d="M 239.5,34.5 C 261.154,49.9703 282.987,65.3036 305,80.5C 305.399,80.2716 305.565,79.9382 305.5,79.5C 312.614,92.0629 318.948,105.063 324.5,118.5C 304.167,105.167 283.833,91.8333 263.5,78.5C 262.209,75.6778 260.543,73.0111 258.5,70.5C 256.929,69.6906 255.262,69.3573 253.5,69.5C 252.448,69.6495 251.448,69.4828 250.5,69C 242.34,63.086 234.007,57.4193 225.5,52C 223.561,51.0922 222.561,49.5922 222.5,47.5C 226.868,41.4811 232.535,37.1478 239.5,34.5 Z"/></g>
<g><path style="opacity:0.985" fill="#ee733c" d="M 222.5,47.5 C 222.561,49.5922 223.561,51.0922 225.5,52C 234.007,57.4193 242.34,63.086 250.5,69C 251.448,69.4828 252.448,69.6495 253.5,69.5C 249.008,76.4783 245.008,83.8116 241.5,91.5C 230.567,85.2291 219.901,78.5624 209.5,71.5C 212.82,62.8533 217.154,54.8533 222.5,47.5 Z"/></g>
<g><path style="opacity:0.986" fill="#ef793d" d="M 209.5,71.5 C 219.901,78.5624 230.567,85.2291 241.5,91.5C 237.739,99.3586 233.739,107.025 229.5,114.5C 220.529,108.343 211.529,102.177 202.5,96C 200.975,94.9914 199.308,94.4914 197.5,94.5C 201.261,86.6414 205.261,78.9747 209.5,71.5 Z"/></g>
<g><path style="opacity:0.985" fill="#ee733c" d="M 263.5,78.5 C 283.833,91.8333 304.167,105.167 324.5,118.5C 331.265,131.193 337.931,144.027 344.5,157C 361.264,159.892 377.931,162.725 394.5,165.5C 393.761,165.369 393.094,165.536 392.5,166C 425.321,187.997 457.988,210.163 490.5,232.5C 487.37,239.964 482.703,246.297 476.5,251.5C 475.448,251.649 474.448,251.483 473.5,251C 463.614,244.23 453.614,237.73 443.5,231.5C 447.13,227.369 450.963,223.369 455,219.5C 455.944,216.653 455.444,214.153 453.5,212C 437.198,209.266 420.864,206.766 404.5,204.5C 365.361,176.761 325.695,149.761 285.5,123.5C 277.897,108.627 270.564,93.6272 263.5,78.5 Z"/></g>
<g><path style="opacity:0.987" fill="#f07f3d" d="M 197.5,94.5 C 199.308,94.4914 200.975,94.9914 202.5,96C 211.529,102.177 220.529,108.343 229.5,114.5C 225.675,123.484 221.341,132.151 216.5,140.5C 206.862,134.01 197.195,127.51 187.5,121C 186.748,120.329 186.414,119.496 186.5,118.5C 190.169,110.496 193.836,102.496 197.5,94.5 Z"/></g>
<g><path style="opacity:0.986" fill="#f1863d" d="M 186.5,118.5 C 186.414,119.496 186.748,120.329 187.5,121C 197.195,127.51 206.862,134.01 216.5,140.5C 213.615,148.601 209.949,156.267 205.5,163.5C 195.445,156.116 185.112,149.116 174.5,142.5C 177.992,134.182 181.992,126.182 186.5,118.5 Z"/></g>
<g><path style="opacity:0.985" fill="#ef793d" d="M 285.5,123.5 C 325.695,149.761 365.361,176.761 404.5,204.5C 380.506,201.048 356.506,197.548 332.5,194C 325.553,193.943 320.053,191.11 316,185.5C 305.548,164.93 295.381,144.263 285.5,123.5 Z"/></g>
<g><path style="opacity:0.987" fill="#f28c3e" d="M 174.5,142.5 C 185.112,149.116 195.445,156.116 205.5,163.5C 202.261,171.647 198.261,179.314 193.5,186.5C 193.586,185.504 193.252,184.671 192.5,184C 180.322,175.97 168.322,167.804 156.5,159.5C 159.822,158.777 163.155,157.943 166.5,157C 169.068,152.024 171.734,147.191 174.5,142.5 Z"/></g>
<g><path style="opacity:0.99" fill="#f3913d" d="M 156.5,159.5 C 168.322,167.804 180.322,175.97 192.5,184C 193.252,184.671 193.586,185.504 193.5,186.5C 188.912,192.041 182.912,194.707 175.5,194.5C 175.586,193.504 175.252,192.671 174.5,192C 160.043,182.693 146.043,172.859 132.5,162.5C 140.475,161.313 148.475,160.313 156.5,159.5 Z"/></g>
<g><path style="opacity:0.987" fill="#f4943a" d="M 132.5,162.5 C 146.043,172.859 160.043,182.693 174.5,192C 175.252,192.671 175.586,193.504 175.5,194.5C 165.192,196.02 154.859,197.353 144.5,198.5C 128.447,188.087 112.447,177.754 96.5,167.5C 108.556,166.206 120.556,164.54 132.5,162.5 Z"/></g>
<g><path style="opacity:0.991" fill="#ed6d3c" d="M 394.5,165.5 C 416.911,168.059 439.245,171.225 461.5,175C 488.823,185.145 498.49,204.312 490.5,232.5C 457.988,210.163 425.321,187.997 392.5,166C 393.094,165.536 393.761,165.369 394.5,165.5 Z"/></g>
<g><path style="opacity:0.981" fill="#f49935" d="M 96.5,167.5 C 112.447,177.754 128.447,188.087 144.5,198.5C 130.275,200.915 115.941,203.248 101.5,205.5C 86.3105,194.408 70.6438,184.075 54.5,174.5C 68.4069,172.178 82.4069,169.844 96.5,167.5 Z"/></g>
<g><path style="opacity:0.981" fill="#f59f30" d="M 54.5,174.5 C 70.6438,184.075 86.3105,194.408 101.5,205.5C 86.3577,207.186 71.3577,209.52 56.5,212.5C 46.0992,205.438 35.4326,198.771 24.5,192.5C 31.6548,181.916 41.6548,175.916 54.5,174.5 Z"/></g>
<g><path style="opacity:0.975" fill="#f6a42c" d="M 24.5,192.5 C 35.4326,198.771 46.0992,205.438 56.5,212.5C 54.3624,214.743 54.1957,217.076 56,219.5C 64.369,227.702 72.5357,236.035 80.5,244.5C 80.5654,244.938 80.3988,245.272 80,245.5C 59.7181,231.947 39.5514,218.28 19.5,204.5C 20.0768,200.017 21.7435,196.017 24.5,192.5 Z"/></g>
<g><path style="opacity:0.985" fill="#f7a629" d="M 19.5,204.5 C 39.5514,218.28 59.7181,231.947 80,245.5C 80.3988,245.272 80.5654,244.938 80.5,244.5C 81.2389,244.369 81.9056,244.536 82.5,245C 103.695,266.529 125.195,287.695 147,308.5C 148.559,310.217 149.392,312.217 149.5,314.5C 105.958,285.805 62.7917,256.471 20,226.5C 19.6174,227.056 19.1174,227.389 18.5,227.5C 16.8914,219.609 17.2248,211.942 19.5,204.5 Z"/></g>
<g><path style="opacity:0.99" fill="#f8aa26" d="M 149.5,314.5 C 150.645,318.311 150.812,322.311 150,326.5C 148.39,335.828 146.89,345.161 145.5,354.5C 144.869,352.552 143.869,350.719 142.5,349C 132.893,343.058 123.56,336.725 114.5,330C 113.423,329.53 112.423,329.697 111.5,330.5C 111.657,329.127 111.49,327.793 111,326.5C 83.3333,299.5 55.6667,272.5 28,245.5C 23.517,240.201 20.3503,234.201 18.5,227.5C 19.1174,227.389 19.6174,227.056 20,226.5C 62.7917,256.471 105.958,285.805 149.5,314.5 Z"/></g>
<g><path style="opacity:0.982" fill="#ef793c" d="M 443.5,231.5 C 453.614,237.73 463.614,244.23 473.5,251C 474.448,251.483 475.448,251.649 476.5,251.5C 469.86,257.806 463.193,264.139 456.5,270.5C 455.71,269.206 454.71,268.039 453.5,267C 444.993,261.581 436.66,255.914 428.5,250C 427.207,249.51 425.873,249.343 424.5,249.5C 430.807,243.528 437.14,237.528 443.5,231.5 Z"/></g>
<g><path style="opacity:0.987" fill="#f0803d" d="M 424.5,249.5 C 425.873,249.343 427.207,249.51 428.5,250C 436.66,255.914 444.993,261.581 453.5,267C 454.71,268.039 455.71,269.206 456.5,270.5C 450.167,277.5 443.5,284.167 436.5,290.5C 425.816,283.474 415.149,276.474 404.5,269.5C 410.833,262.5 417.5,255.833 424.5,249.5 Z"/></g>
<g><path style="opacity:0.986" fill="#f1873d" d="M 404.5,269.5 C 415.149,276.474 425.816,283.474 436.5,290.5C 430.193,296.472 423.86,302.472 417.5,308.5C 407.743,301.11 397.743,293.943 387.5,287C 388.252,286.329 388.586,285.496 388.5,284.5C 393.807,279.528 399.14,274.528 404.5,269.5 Z"/></g>
<g><path style="opacity:0.989" fill="#f28c3f" d="M 388.5,284.5 C 388.586,285.496 388.252,286.329 387.5,287C 397.743,293.943 407.743,301.11 417.5,308.5C 412.167,314.5 406.5,320.167 400.5,325.5C 390.4,319.249 380.4,312.749 370.5,306C 369.748,305.329 369.414,304.496 369.5,303.5C 375.5,296.833 381.833,290.5 388.5,284.5 Z"/></g>
<g><path style="opacity:0.99" fill="#f3913d" d="M 369.5,303.5 C 369.414,304.496 369.748,305.329 370.5,306C 380.4,312.749 390.4,319.249 400.5,325.5C 400.018,326.416 399.685,327.416 399.5,328.5C 400.826,334.79 401.826,341.123 402.5,347.5C 388.5,338.167 374.5,328.833 360.5,319.5C 360.893,312.715 363.893,307.382 369.5,303.5 Z"/></g>
<g><path style="opacity:0.986" fill="#f4943a" d="M 360.5,319.5 C 374.5,328.833 388.5,338.167 402.5,347.5C 404.81,357.359 406.476,367.359 407.5,377.5C 407.565,377.938 407.399,378.272 407,378.5C 393.558,368.554 379.725,359.22 365.5,350.5C 363.195,340.302 361.528,329.968 360.5,319.5 Z"/></g>
<g><path style="opacity:0.983" fill="#f9b021" d="M 145.5,354.5 C 144.073,360.394 143.073,366.394 142.5,372.5C 131.593,364.033 120.259,356.033 108.5,348.5C 108.857,342.359 109.857,336.359 111.5,330.5C 112.423,329.697 113.423,329.53 114.5,330C 123.56,336.725 132.893,343.058 142.5,349C 143.869,350.719 144.869,352.552 145.5,354.5 Z"/></g>
<g><path style="opacity:0.982" fill="#f49935" d="M 365.5,350.5 C 379.725,359.22 393.558,368.554 407,378.5C 407.399,378.272 407.565,377.938 407.5,377.5C 410.246,389.965 412.58,402.632 414.5,415.5C 413.788,416.739 412.788,417.239 411.5,417C 398.619,407.945 385.619,399.112 372.5,390.5C 369.679,377.379 367.346,364.046 365.5,350.5 Z"/></g>
<g><path style="opacity:0.983" fill="#f9b41d" d="M 108.5,348.5 C 120.259,356.033 131.593,364.033 142.5,372.5C 141.059,378.812 139.726,385.145 138.5,391.5C 127.167,383.833 115.833,376.167 104.5,368.5C 105.634,361.676 106.967,355.01 108.5,348.5 Z"/></g>
<g><path style="opacity:0.99" fill="#fab819" d="M 104.5,368.5 C 115.833,376.167 127.167,383.833 138.5,391.5C 136.912,403.033 134.912,414.366 132.5,425.5C 121.465,418.558 110.631,411.225 100,403.5C 99.6174,404.056 99.1174,404.389 98.5,404.5C 100.5,392.5 102.5,380.5 104.5,368.5 Z"/></g>
<g><path style="opacity:0.994" fill="#f7a926" d="M 277.5,400.5 C 275.158,400.775 275.158,401.608 277.5,403C 317.488,429.471 356.821,456.638 395.5,484.5C 388.93,487.859 381.93,489.192 374.5,488.5C 330.678,458.196 286.678,428.03 242.5,398C 241.552,397.517 240.552,397.351 239.5,397.5C 245.816,391.961 253.149,390.128 261.5,392C 267.053,394.608 272.387,397.441 277.5,400.5 Z"/></g>
<g><path style="opacity:0.982" fill="#f8ac24" d="M 239.5,397.5 C 240.552,397.351 241.552,397.517 242.5,398C 286.678,428.03 330.678,458.196 374.5,488.5C 368.567,488.691 362.9,487.524 357.5,485C 330.473,470.821 303.473,456.654 276.5,442.5C 276.611,441.883 276.944,441.383 277.5,441C 259.508,429.527 242.175,417.361 225.5,404.5C 229.883,401.642 234.55,399.308 239.5,397.5 Z"/></g>
<g><path style="opacity:0.973" fill="#f7a62a" d="M 277.5,400.5 C 309.78,417.308 342.113,434.141 374.5,451C 377.096,451.458 379.263,450.625 381,448.5C 381.35,444.08 380.85,439.747 379.5,435.5C 380.789,434.499 382.122,434.666 383.5,436C 394.681,443.696 405.681,451.53 416.5,459.5C 413.016,470.811 406.016,479.144 395.5,484.5C 356.821,456.638 317.488,429.471 277.5,403C 275.158,401.608 275.158,400.775 277.5,400.5 Z"/></g>
<g><path style="opacity:0.983" fill="#fbbe14" d="M 132.5,425.5 C 131.935,432.223 130.935,438.889 129.5,445.5C 129.967,449.731 132.3,451.565 136.5,451C 142.886,447.807 149.22,444.64 155.5,441.5C 167.027,449.759 178.693,457.759 190.5,465.5C 179.657,471.422 168.657,477.089 157.5,482.5C 136.512,467.696 115.346,453.03 94,438.5C 93.6174,439.056 93.1174,439.389 92.5,439.5C 94.3932,427.807 96.3932,416.141 98.5,404.5C 99.1174,404.389 99.6174,404.056 100,403.5C 110.631,411.225 121.465,418.558 132.5,425.5 Z"/></g>
<g><path style="opacity:0.983" fill="#f9b021" d="M 225.5,404.5 C 242.175,417.361 259.508,429.527 277.5,441C 276.944,441.383 276.611,441.883 276.5,442.5C 269.685,438.591 262.685,434.925 255.5,431.5C 250.14,434.18 244.807,436.847 239.5,439.5C 239.586,438.504 239.252,437.671 238.5,437C 227.592,429.724 216.925,422.224 206.5,414.5C 212.675,410.912 219.009,407.578 225.5,404.5 Z"/></g>
<g><path style="opacity:0.983" fill="#f59f30" d="M 372.5,390.5 C 385.619,399.112 398.619,407.945 411.5,417C 412.788,417.239 413.788,416.739 414.5,415.5C 416.489,425.768 418.156,436.102 419.5,446.5C 419.022,451.084 418.022,455.417 416.5,459.5C 405.681,451.53 394.681,443.696 383.5,436C 382.122,434.666 380.789,434.499 379.5,435.5C 377.058,420.514 374.725,405.514 372.5,390.5 Z"/></g>
<g><path style="opacity:0.985" fill="#f9b41d" d="M 206.5,414.5 C 216.925,422.224 227.592,429.724 238.5,437C 239.252,437.671 239.586,438.504 239.5,439.5C 233.783,443.025 227.783,446.025 221.5,448.5C 210.167,440.5 198.833,432.5 187.5,424.5C 193.675,420.912 200.009,417.578 206.5,414.5 Z"/></g>
<g><path style="opacity:0.988" fill="#fab819" d="M 187.5,424.5 C 198.833,432.5 210.167,440.5 221.5,448.5C 211.362,454.405 201.029,460.071 190.5,465.5C 178.693,457.759 167.027,449.759 155.5,441.5C 165.815,435.34 176.482,429.674 187.5,424.5 Z"/></g>
<g><path style="opacity:0.983" fill="#fcc30f" d="M 157.5,482.5 C 147.611,488.182 136.944,490.016 125.5,488C 101.741,480.679 90.7408,464.513 92.5,439.5C 93.1174,439.389 93.6174,439.056 94,438.5C 115.346,453.03 136.512,467.696 157.5,482.5 Z"/></g>
</svg>
