<?xml version="1.0" encoding="UTF-8"?>
<!DOCTYPE svg PUBLIC "-//W3C//DTD SVG 1.1//EN" "http://www.w3.org/Graphics/SVG/1.1/DTD/svg11.dtd">
<svg xmlns="http://www.w3.org/2000/svg" version="1.1" width="512px" height="512px" style="shape-rendering:geometricPrecision; text-rendering:geometricPrecision; image-rendering:optimizeQuality; fill-rule:evenodd; clip-rule:evenodd" xmlns:xlink="http://www.w3.org/1999/xlink">
<g><path style="opacity:0.994" fill="#fcbf49" d="M 252.5,51.5 C 263.035,50.8515 271.202,54.8515 277,63.5C 294.434,99.5343 312.267,135.368 330.5,171C 370.181,176.907 409.848,182.907 449.5,189C 464.434,193.682 470.601,203.849 468,219.5C 466.861,223.112 465.194,226.446 463,229.5C 434.333,257.5 405.667,285.5 377,313.5C 383.059,353.854 389.559,394.187 396.5,434.5C 393.304,455.101 381.637,462.601 361.5,457C 326.287,438.56 290.953,420.394 255.5,402.5C 219.38,420.727 183.38,439.227 147.5,458C 131.523,462.925 120.356,457.758 114,442.5C 113.333,437.833 113.333,433.167 114,428.5C 120.669,390.154 127.002,351.82 133,313.5C 104,285.167 75,256.833 46,228.5C 39.7337,217.628 40.067,206.962 47,196.5C 49.5,194.667 52,192.833 54.5,191C 96.829,184.025 139.162,177.191 181.5,170.5C 199.272,135.29 216.772,99.9567 234,64.5C 238.278,57.2935 244.445,52.9601 252.5,51.5 Z"/></g>
</svg>
